<svg xmlns="http://www.w3.org/2000/svg" width="24" height="24" viewBox="0 0 24 24"><polygon points="12.00,2.20 18.00,4.15 21.70,9.25 21.70,15.55 18.00,20.65 12.00,22.60 6.00,20.65 2.30,15.55 2.30,9.25 6.00,4.15" fill="none" stroke="#FFFFFF" stroke-width="1.9" stroke-linejoin="round"/><polygon points="12.00,7.10 6.96,10.76 8.88,16.69 12.00,16.69" fill="#FFFFFF"/><polygon points="12.00,7.10 17.04,10.76 15.12,16.69 8.88,16.69 6.96,10.76" fill="none" stroke="#FFFFFF" stroke-width="1.9" stroke-linejoin="round"/><line x1="12.00" y1="7.10" x2="12.00" y2="2.20" stroke="#FFFFFF" stroke-width="1.9" stroke-linecap="round"/><line x1="17.04" y1="10.76" x2="21.70" y2="9.25" stroke="#FFFFFF" stroke-width="1.9" stroke-linecap="round"/><line x1="15.12" y1="16.69" x2="18.00" y2="20.65" stroke="#FFFFFF" stroke-width="1.9" stroke-linecap="round"/><line x1="8.88" y1="16.69" x2="6.00" y2="20.65" stroke="#FFFFFF" stroke-width="1.9" stroke-linecap="round"/><line x1="6.96" y1="10.76" x2="2.30" y2="9.25" stroke="#FFFFFF" stroke-width="1.9" stroke-linecap="round"/></svg>